<svg xmlns="http://www.w3.org/2000/svg" xmlns:xlink="http://www.w3.org/1999/xlink" width="200" height="89" viewBox="0 0 200 89"><defs><clipPath id="a"><rect width="196.912" height="86.799" fill="none"></rect></clipPath><clipPath id="c"><rect width="200" height="89"></rect></clipPath></defs><g id="b" clip-path="url(#c)"><g transform="translate(2 1)"><g transform="translate(0 0)" clip-path="url(#a)"><path d="M98.455,0c36.97,0,71.068,3.253,98.455,8.744v69.31c-27.387,5.49-61.485,8.746-98.455,8.746S27.389,83.543,0,78.053V8.744C27.389,3.253,61.485,0,98.455,0" transform="translate(0 -0.001)" fill="#036" fill-rule="evenodd"></path><path d="M78.841,47.464c0-9.768-4.882-18.122-19.426-18.122A30.275,30.275,0,0,0,51.773,30.5V13.659H39.989V63.337h5.839l3.5-3.344s2.761,4.052,11.785,4.052c13.056,0,17.726-7.714,17.726-16.581m-12-.257c0,5.205-1.061,11.308-8.067,11.308-6.582,0-7.005-5.074-7.005-9.764V35.383a19.83,19.83,0,0,1,4.776-.709c8.067,0,10.3,5.655,10.3,12.533M103.4,29.4c-15.286-.085-20.17,7.326-20.17,16.839,0,11.181,8.07,17.865,26.22,17.865,6.9,0,9.419-1.092,9.419-1.092l1.409-5.139a80.9,80.9,0,0,1-9.342.9c-9.119.444-14.622-2.576-15.84-9.028,6.5-.029,30.806,2.713,25.8-10.448-1.983-5.22-8.555-9.841-17.5-9.893m7.325,13.37h-15.5c0-3.025,1.062-8.1,8.175-8.1,5.546,0,7.325,4.694,7.325,8.1M20.966,13.659H32.76V18.5c-1.391,2.149-9.188,8.093-11.794,8.8ZM32.76,26.1V63.337H20.966V32.527A37.275,37.275,0,0,0,32.76,26.1" transform="translate(6.496 4.515)" fill="#fff" fill-rule="evenodd"></path><path d="M144.082,56.061a2.523,2.523,0,0,1,.392.717,1.682,1.682,0,0,1,.1.746,1.919,1.919,0,0,1-.128.486,1.736,1.736,0,0,1-.253.423,1.834,1.834,0,0,1-.338.323,2,2,0,0,1-.394.228,25.772,25.772,0,0,1-4.767,2.38,22.107,22.107,0,0,1-4.232,1.112,21.165,21.165,0,0,1-3.5.253,21.963,21.963,0,0,1-2.556-.19,21.288,21.288,0,0,1-4.1-.927,20.433,20.433,0,0,1-4.246-2.007A26.354,26.354,0,0,1,115.8,56.3a40.735,40.735,0,0,1-4.193-4.663q-.686.946-1.327,1.9c-.507.758-.994,1.522-1.451,2.294-.5.842-1.03,1.8-1.527,2.781-.474.933-.918,1.874-1.281,2.724l-.014.043a3.2,3.2,0,0,1-.386.732,1.391,1.391,0,0,1-.583.464,1.731,1.731,0,0,1-.7.136,6.551,6.551,0,0,1-.854-.071,3.221,3.221,0,0,1-.8-.2,1.889,1.889,0,0,1-.613-.394,1.556,1.556,0,0,1-.409-.665,1.9,1.9,0,0,1-.064-.778v-.025l0-.027A10.978,10.978,0,0,1,102.42,58a26.982,26.982,0,0,1,1.654-3.187c.623-1.039,1.364-2.148,2.2-3.309.811-1.132,1.72-2.311,2.7-3.529-.833-1.287-1.619-2.632-2.355-4.016-.8-1.489-1.529-3.03-2.194-4.587-.7-1.635-1.324-3.288-1.864-4.925s-1-3.285-1.357-4.869l-.008-.039v-.005c-.185-.844-.339-1.665-.466-2.45-.144-.907-.254-1.77-.337-2.559-.1-.977-.157-1.847-.186-2.567a16.485,16.485,0,0,1,.005-1.967v-.005l0-.035,0-.035a1.959,1.959,0,0,1,.3-.76,3.028,3.028,0,0,1,.572-.676,2.8,2.8,0,0,1,.888-.523,2.22,2.22,0,0,1,.94-.121h.008l.03.007.037,0a1,1,0,0,1,.532.255,1.46,1.46,0,0,1,.365.5,1.992,1.992,0,0,1,.141.464,1.764,1.764,0,0,1,.024.442,23.885,23.885,0,0,0,1.137,4.841,47.717,47.717,0,0,0,2.435,5.867,63.321,63.321,0,0,0,3.323,5.949c1.128,1.8,2.377,3.593,3.721,5.328,2.419-2.561,5.026-5.095,7.652-7.428a88.209,88.209,0,0,1,7.715-6.169,37.627,37.627,0,0,1,6.617-3.839,9.776,9.776,0,0,1,4.871-.994,4.05,4.05,0,0,1,1.174.327,3.314,3.314,0,0,1,.948.657,3.279,3.279,0,0,1,.661.965,3.636,3.636,0,0,1,.3,1.172c.2,2.194.077,3.349-.523,4.064s-1.612.9-3.2,1.2a30.038,30.038,0,0,0-8.348,2.693c-3.817,1.842-8.775,5.02-15.148,10.7a47.749,47.749,0,0,0,4.305,4.289,37.594,37.594,0,0,0,4.723,3.53,27.854,27.854,0,0,0,4.867,2.451,21.167,21.167,0,0,0,4.8,1.231c2.977.386,4.191-.275,4.966-.7l.008,0,.016-.011c.144-.079.278-.153.432-.221v0h0l.005,0a2.1,2.1,0,0,1,.262-.1,1.836,1.836,0,0,1,.282-.077,2.269,2.269,0,0,1,.314-.036,2.43,2.43,0,0,1,.335.017,1.785,1.785,0,0,1,.736.278,2.546,2.546,0,0,1,.626.576" transform="translate(31.041 5.895)" fill="#fff"></path></g></g></g></svg>